<svg width="180" height="51" viewBox="0 0 180 51" fill="none" xmlns="http://www.w3.org/2000/svg">
<path d="M75.6702 30.0771C78.7307 30.0771 81.2117 32.5582 81.2117 35.6186C81.2117 38.6791 78.7307 41.1602 75.6702 41.1602C72.6097 41.1602 70.1287 38.6791 70.1287 35.6186C70.1287 32.5582 72.6097 30.0771 75.6702 30.0771Z" stroke="black" stroke-width="3.16658" stroke-linecap="round" stroke-linejoin="round"/>
<path d="M75.6702 9.49438C78.7307 9.49438 81.2117 11.9754 81.2117 15.0359C81.2117 18.0964 78.7307 20.5774 75.6702 20.5774C72.6097 20.5774 70.1287 18.0964 70.1287 15.0359C70.1287 11.9754 72.6097 9.49438 75.6702 9.49438Z" stroke="black" stroke-width="3.16658" stroke-linecap="round" stroke-linejoin="round"/>
<path d="M80.9149 33.3427L79.8264 31.8583L83.4878 30.374C83.4878 30.374 83.8302 31.0093 84.1805 31.3635L80.9149 33.3427Z" stroke="black" stroke-width="3.16658" stroke-miterlimit="10" stroke-linecap="square"/>
<path d="M80.6348 17.5662L110.898 34.6291C110.651 35.2921 108.128 35.8166 104.565 35.0249C101.684 34.3847 92.5758 32.1503 88.8154 29.4785C85.7488 27.3005 87.8417 23.744 84.3783 21.1712C81.844 19.291 79.9817 18.913 79.9817 18.913L80.6348 17.5662ZM99.466 23.1265L94.5707 20.3132C95.9788 19.6463 101.056 17.021 106.148 16.7182C107.625 16.6301 109.117 16.6796 110.008 17.3119L99.466 23.1265Z" stroke="black" stroke-width="3.16658" stroke-miterlimit="10" stroke-linecap="round"/>
<path d="M90.7115 23.744C92.4603 23.744 93.8781 25.1617 93.8781 26.9106C93.8781 28.6594 92.4603 30.0771 90.7115 30.0771C88.9626 30.0771 87.5449 28.6594 87.5449 26.9106C87.5449 25.1617 88.9626 23.744 90.7115 23.744Z" stroke="black" stroke-width="3.16658" stroke-miterlimit="10"/>
<rect width="57.5921" height="3" rx="1.5" transform="matrix(1 0 0 -1 9 27)" fill="black"/>
<rect width="57.5921" height="3" rx="1.5" transform="matrix(1 0 0 -1 114 27)" fill="black"/>
</svg>
